<mxfile host="app.diagrams.net" agent="Mozilla/5.0 (Windows NT 10.0; Win64; x64) AppleWebKit/537.36 (KHTML, like Gecko) Chrome/133.0.0.0 Safari/537.36" version="26.0.16">
  <diagram name="Page-1" id="GOpjCKeXJividRKamB3C">
    <mxGraphModel dx="1434" dy="746" grid="1" gridSize="10" guides="1" tooltips="1" connect="1" arrows="1" fold="1" page="1" pageScale="1" pageWidth="850" pageHeight="1100" math="0" shadow="0">
      <root>
        <mxCell id="0" />
        <mxCell id="1" parent="0" />
        <mxCell id="jJH2B-7xsKmhPhyJe4CN-2" value="Internet" style="ellipse;shape=cloud;whiteSpace=wrap;html=1;" vertex="1" parent="1">
          <mxGeometry x="662" y="50" width="120" height="80" as="geometry" />
        </mxCell>
        <mxCell id="jJH2B-7xsKmhPhyJe4CN-3" value="" style="endArrow=none;html=1;rounded=0;entryX=0.55;entryY=0.95;entryDx=0;entryDy=0;entryPerimeter=0;exitX=0.5;exitY=0;exitDx=0;exitDy=0;exitPerimeter=0;" edge="1" parent="1" source="jJH2B-7xsKmhPhyJe4CN-1" target="jJH2B-7xsKmhPhyJe4CN-2">
          <mxGeometry width="50" height="50" relative="1" as="geometry">
            <mxPoint x="395" y="260" as="sourcePoint" />
            <mxPoint x="445" y="210" as="targetPoint" />
          </mxGeometry>
        </mxCell>
        <mxCell id="jJH2B-7xsKmhPhyJe4CN-4" value="External" style="swimlane;whiteSpace=wrap;html=1;" vertex="1" parent="1">
          <mxGeometry x="595" width="255" height="160" as="geometry" />
        </mxCell>
        <mxCell id="jJH2B-7xsKmhPhyJe4CN-8" value="Transport-Boundary -- Collapsed Core/Distro Layer" style="swimlane;whiteSpace=wrap;html=1;" vertex="1" parent="1">
          <mxGeometry x="463" y="170" width="387.5" height="260" as="geometry" />
        </mxCell>
        <mxCell id="jJH2B-7xsKmhPhyJe4CN-1" value="" style="sketch=0;aspect=fixed;pointerEvents=1;shadow=0;dashed=0;html=1;strokeColor=none;labelPosition=center;verticalLabelPosition=bottom;verticalAlign=top;align=center;fillColor=#00188D;shape=mxgraph.mscae.enterprise.firewall" vertex="1" parent="jJH2B-7xsKmhPhyJe4CN-8">
          <mxGeometry x="247" y="32" width="50" height="44" as="geometry" />
        </mxCell>
        <mxCell id="jJH2B-7xsKmhPhyJe4CN-5" value="" style="shape=mxgraph.cisco.routers.router;sketch=0;html=1;pointerEvents=1;dashed=0;fillColor=#036897;strokeColor=#ffffff;strokeWidth=2;verticalLabelPosition=bottom;verticalAlign=top;align=center;outlineConnect=0;" vertex="1" parent="jJH2B-7xsKmhPhyJe4CN-8">
          <mxGeometry x="233" y="140" width="78" height="53" as="geometry" />
        </mxCell>
        <mxCell id="jJH2B-7xsKmhPhyJe4CN-7" value="" style="edgeStyle=orthogonalEdgeStyle;rounded=0;orthogonalLoop=1;jettySize=auto;html=1;endArrow=none;startFill=0;" edge="1" parent="jJH2B-7xsKmhPhyJe4CN-8" source="jJH2B-7xsKmhPhyJe4CN-5" target="jJH2B-7xsKmhPhyJe4CN-1">
          <mxGeometry relative="1" as="geometry" />
        </mxCell>
        <mxCell id="jJH2B-7xsKmhPhyJe4CN-6" value="Core router contains all Gateways for HQ. Uses P2P Link for FW" style="text;html=1;align=center;verticalAlign=middle;whiteSpace=wrap;rounded=0;" vertex="1" parent="jJH2B-7xsKmhPhyJe4CN-8">
          <mxGeometry x="7" y="118.5" width="176" height="50" as="geometry" />
        </mxCell>
        <mxCell id="jJH2B-7xsKmhPhyJe4CN-9" value="FW-03, only performing packet inspection and FW functions" style="text;html=1;align=center;verticalAlign=middle;whiteSpace=wrap;rounded=0;" vertex="1" parent="jJH2B-7xsKmhPhyJe4CN-8">
          <mxGeometry x="17.5" y="41" width="155" height="43" as="geometry" />
        </mxCell>
        <mxCell id="jJH2B-7xsKmhPhyJe4CN-14" value="" style="endArrow=none;html=1;rounded=0;entryX=0;entryY=0.5;entryDx=0;entryDy=0;entryPerimeter=0;exitX=1;exitY=0.5;exitDx=0;exitDy=0;exitPerimeter=0;" edge="1" parent="1" source="jJH2B-7xsKmhPhyJe4CN-1" target="jJH2B-7xsKmhPhyJe4CN-13">
          <mxGeometry width="50" height="50" relative="1" as="geometry">
            <mxPoint x="760" y="310" as="sourcePoint" />
            <mxPoint x="810" y="260" as="targetPoint" />
          </mxGeometry>
        </mxCell>
        <mxCell id="jJH2B-7xsKmhPhyJe4CN-10" value="DMZ" style="swimlane;horizontal=0;whiteSpace=wrap;html=1;flipH=1;flipV=0;direction=west;" vertex="1" parent="1">
          <mxGeometry x="850.5" y="170" width="200" height="110" as="geometry" />
        </mxCell>
        <mxCell id="jJH2B-7xsKmhPhyJe4CN-13" value="" style="shape=mxgraph.cisco.servers.fileserver;sketch=0;html=1;pointerEvents=1;dashed=0;fillColor=#036897;strokeColor=#ffffff;strokeWidth=2;verticalLabelPosition=bottom;verticalAlign=top;align=center;outlineConnect=0;" vertex="1" parent="jJH2B-7xsKmhPhyJe4CN-10">
          <mxGeometry x="49.5" y="22" width="43" height="62" as="geometry" />
        </mxCell>
        <mxCell id="jJH2B-7xsKmhPhyJe4CN-17" value="" style="endArrow=none;html=1;rounded=0;entryX=0;entryY=0.5;entryDx=0;entryDy=0;entryPerimeter=0;exitX=1;exitY=0.5;exitDx=0;exitDy=0;exitPerimeter=0;" edge="1" parent="1" source="jJH2B-7xsKmhPhyJe4CN-5" target="jJH2B-7xsKmhPhyJe4CN-16">
          <mxGeometry width="50" height="50" relative="1" as="geometry">
            <mxPoint x="780" y="333" as="sourcePoint" />
            <mxPoint x="810" y="260" as="targetPoint" />
          </mxGeometry>
        </mxCell>
        <mxCell id="jJH2B-7xsKmhPhyJe4CN-15" value="Internal Servers" style="swimlane;horizontal=0;whiteSpace=wrap;html=1;flipH=1;flipV=0;direction=west;startSize=23;" vertex="1" parent="1">
          <mxGeometry x="850.5" y="280" width="200" height="110" as="geometry" />
        </mxCell>
        <mxCell id="jJH2B-7xsKmhPhyJe4CN-16" value="" style="shape=mxgraph.cisco.servers.fileserver;sketch=0;html=1;pointerEvents=1;dashed=0;fillColor=#036897;strokeColor=#ffffff;strokeWidth=2;verticalLabelPosition=bottom;verticalAlign=top;align=center;outlineConnect=0;" vertex="1" parent="jJH2B-7xsKmhPhyJe4CN-15">
          <mxGeometry x="49.5" y="25.5" width="43" height="62" as="geometry" />
        </mxCell>
      </root>
    </mxGraphModel>
  </diagram>
</mxfile>
